<svg width="442" height="100" viewBox="0 0 442 100" fill="none" xmlns="http://www.w3.org/2000/svg">
<path d="M113 22.0467H129.177L142.462 61.9244L155.532 22.0467H171.388L151.568 77.4444H132.82L113 22.0467Z" fill="white"/>
<path d="M171.116 49.8533C171.116 44.1052 172.259 39.1115 174.544 34.8722C176.901 30.5611 180.151 27.2559 184.293 24.9567C188.507 22.5856 193.364 21.4 198.864 21.4C204.435 21.4 209.327 22.5137 213.541 24.7411C217.826 26.8967 221.147 29.9863 223.504 34.01C225.933 37.9619 227.183 42.6322 227.254 48.0211C227.254 49.9611 227.111 51.6856 226.826 53.1944H186.865V53.6256C187.222 57.6493 188.507 60.8107 190.721 63.11C192.936 65.4093 195.971 66.5589 199.828 66.5589C202.899 66.5589 205.434 65.9122 207.434 64.6189C209.506 63.2537 210.863 61.2778 211.505 58.6911H226.397C225.826 62.3556 224.433 65.6607 222.219 68.6067C220.005 71.5526 217.076 73.8878 213.434 75.6122C209.791 77.2648 205.613 78.0911 200.899 78.0911C194.757 78.0911 189.436 76.9415 184.936 74.6422C180.508 72.343 177.08 69.0737 174.651 64.8344C172.294 60.5233 171.116 55.5296 171.116 49.8533ZM212.148 43.2789C211.648 39.9019 210.256 37.3152 207.97 35.5189C205.756 33.6507 202.935 32.7167 199.506 32.7167C196.221 32.7167 193.435 33.6867 191.15 35.6267C188.936 37.4948 187.615 40.0456 187.186 43.2789H212.148Z" fill="white"/>
<path d="M266.042 21.4C272.47 21.4 277.756 23.4119 281.898 27.4356C286.041 31.4593 288.112 38.1056 288.112 47.3744V77.4444H273.006V48.2367C273.006 38.6804 269.292 33.9022 261.864 33.9022C257.936 33.9022 254.9 35.2315 252.758 37.89C250.615 40.5485 249.544 44.2848 249.544 49.0989V77.4444H234.438V22.0467H247.615L249.008 28.9444C250.937 26.5733 253.258 24.7411 255.972 23.4478C258.686 22.0826 262.043 21.4 266.042 21.4Z" fill="white"/>
<path d="M351.626 2V77.4444H338.448L336.948 69.7922C332.734 75.3248 327.021 78.0911 319.807 78.0911C314.95 78.0911 310.593 76.9415 306.737 74.6422C302.88 72.2711 299.844 68.93 297.63 64.6189C295.487 60.3078 294.416 55.3141 294.416 49.6378C294.416 44.0333 295.487 39.1115 297.63 34.8722C299.844 30.5611 302.88 27.2559 306.737 24.9567C310.665 22.5856 315.057 21.4 319.914 21.4C327.056 21.4 332.592 23.9148 336.52 28.9444V2H351.626ZM323.342 65.6967C327.413 65.6967 330.663 64.2596 333.091 61.3856C335.52 58.4396 336.734 54.5956 336.734 49.8533C336.734 45.0393 335.52 41.1593 333.091 38.2133C330.663 35.2674 327.413 33.7944 323.342 33.7944C319.271 33.7944 315.986 35.2674 313.486 38.2133C311.058 41.1593 309.843 45.0033 309.843 49.7456C309.843 54.4878 311.058 58.3319 313.486 61.2778C315.986 64.2237 319.271 65.6967 323.342 65.6967Z" fill="white"/>
<path d="M361.086 2H376.192V77.4444H361.086V2Z" fill="white"/>
<path d="M396.361 22.0467L409.752 61.8167L422.823 22.0467H439L414.573 85.3122C413.288 88.6893 412.074 91.3119 410.931 93.18C409.788 95.12 408.324 96.557 406.538 97.4911C404.824 98.497 402.574 99 399.789 99H385.112V86.1744H393.468C395.397 86.1744 396.789 85.8511 397.646 85.2044C398.503 84.5578 399.325 83.3004 400.11 81.4322L401.503 77.7678L380.291 22.0467H396.361Z" fill="white"/>
<path fill-rule="evenodd" clip-rule="evenodd" d="M25 2C13.9543 2 5 10.9543 5 22V72C5 83.0457 13.9543 92 25 92H75C86.0457 92 95 83.0457 95 72V22C95 10.9543 86.0457 2 75 2H25ZM70.8554 42.3164C72.8323 41.8237 74.566 41.2824 76.0564 40.6926L76.8462 40.4005C78.5596 39.7579 79.5281 38.7068 79.7517 37.2471C79.9753 35.7868 79.5226 34.5799 78.3934 33.6264C77.2648 32.6724 75.8442 32.5166 74.1314 33.1592L73.4568 33.4523C72.2777 34.0136 71.07 34.4834 69.8336 34.8617C69.6451 32.6785 69.3016 30.5844 68.8032 28.5793C68.3123 26.6797 67.514 25.021 66.4081 23.6031C65.3023 22.1846 63.9621 21.0846 62.3875 20.3031C60.813 19.5211 59.1066 19.1202 57.2685 19.1005C55.2381 19.0809 53.3969 19.5257 51.7449 20.4349C50.0936 21.3441 48.8228 22.625 47.9326 24.2776C47.043 25.9296 46.6468 27.8018 46.7438 29.8943C46.8409 32.324 47.6629 34.5627 49.2098 36.6103C50.7574 38.6573 52.8483 40.2731 55.4826 41.4575C57.1582 42.2109 58.9387 42.7167 60.824 42.975C60.7107 44.2219 60.5555 45.4921 60.3584 46.7857C59.6009 51.7613 58.1747 55.9594 56.0798 59.3801C53.9848 62.8008 51.2759 64.5305 47.9529 64.5692C44.1826 64.6276 41.3219 62.8644 39.3708 59.2797C37.4196 55.6944 36.1894 51.4247 35.6801 46.4706C35.1708 41.5165 35.1054 36.9021 35.4838 32.6275C35.4838 30.798 34.7589 29.5085 33.309 28.759C31.8598 28.0089 30.3906 27.9938 28.9014 28.7138C27.4128 29.4338 26.6686 30.7089 26.6686 32.539C26.1537 38.1744 26.3795 44.0921 27.3459 50.2921C28.3122 56.4921 30.452 61.8034 33.7652 66.2261C37.079 70.6488 41.8082 72.8408 47.9529 72.802C53.9219 72.7633 58.7224 70.2845 62.3544 65.3654C65.987 60.4463 68.3184 54.4875 69.3487 47.4888C69.5976 45.7979 69.7758 44.1476 69.8832 42.5378C70.2138 42.4693 70.5379 42.3955 70.8554 42.3164ZM61.0078 35.9134C60.9628 34.8894 60.8848 33.8838 60.774 32.8966C60.6327 30.857 60.2939 29.381 59.7575 28.4687C59.2212 27.5564 58.5083 27.1101 57.6187 27.1297C56.965 27.1488 56.405 27.4305 55.9388 27.9748C55.4725 28.5191 55.2492 29.256 55.2688 30.1855C55.3272 31.408 55.7016 32.493 56.3921 33.4403C57.0833 34.3876 58.0939 35.0886 59.4239 35.5432C59.914 35.7107 60.442 35.8341 61.0078 35.9134Z" fill="white"/>
</svg>
